# xmcd
#
# Track frame offsets:
# 150
# 12070
# 26527
# 40551
# 58163
# 71186
# 84971
# 100714
# 116133
# 128723
#
# Disc length: 1930 seconds
#
#
# Revision: 1
# Processed by: cddbd v1.5.2PL0 Copyright (c) Steve Scherf et al.
# Submitted via: FreeRIP 2.945 
#
DISCID=7807880a
DTITLE=George Strait - Easy come, Easy Go
DYEAR=1900
DGENRE=country
TTITLE0=Stay ouy of my arms
TTITLE1=just look at me
TTITLE2=easy come easy go
TTITLE3=id like to have that one back
TTITLE4=love bug
TTITLE5=i wasnt fooling around
TTITLE6=without me around
TTITLE7=the man in love with you
TTITLE8=thats where my baby feels at home
TTITLE9=we must be loving right
EXTD=
EXTT0=
EXTT1=
EXTT2=
EXTT3=
EXTT4=
EXTT5=
EXTT6=
EXTT7=
EXTT8=
EXTT9=
PLAYORDER=
